<svg width="119" height="119" viewBox="0 0 119 119" fill="none" xmlns="http://www.w3.org/2000/svg">
<circle cx="59.5" cy="59.5" r="59.5" fill="#203C87"/>
<g clip-path="url(#clip0)">
<path d="M307.37 -244.74L123 -92.89V71.0001C123 75.2435 124.686 79.3132 127.686 82.3138C130.687 85.3144 134.756 87.0001 139 87.0001L251.06 86.7101C255.289 86.6889 259.339 84.9939 262.322 81.9956C265.305 78.9973 266.98 74.9397 266.98 70.7101V-24.9999C266.98 -29.2434 268.666 -33.3131 271.666 -36.3137C274.667 -39.3142 278.736 -40.9999 282.98 -40.9999H346.98C351.223 -40.9999 355.293 -39.3142 358.294 -36.3137C361.294 -33.3131 362.98 -29.2434 362.98 -24.9999V70.6401C362.973 72.7454 363.382 74.8314 364.183 76.7784C364.984 78.7253 366.162 80.4951 367.648 81.9861C369.135 83.4771 370.901 84.6602 372.845 85.4674C374.79 86.2746 376.874 86.6901 378.98 86.6901L491 87.0001C495.243 87.0001 499.313 85.3144 502.314 82.3138C505.314 79.3132 507 75.2435 507 71.0001V-92.9999L322.67 -244.74C320.503 -246.487 317.803 -247.439 315.02 -247.439C312.236 -247.439 309.537 -246.487 307.37 -244.74ZM598.6 -141.53L515 -210.44V-348.95C515 -352.133 513.736 -355.185 511.485 -357.435C509.235 -359.686 506.182 -360.95 503 -360.95H447C443.817 -360.95 440.765 -359.686 438.515 -357.435C436.264 -355.185 435 -352.133 435 -348.95V-276.34L345.47 -350C336.878 -357.07 326.097 -360.936 314.97 -360.936C303.843 -360.936 293.062 -357.07 284.47 -350L31.3399 -141.53C30.1247 -140.526 29.1194 -139.292 28.3813 -137.899C27.6432 -136.506 27.1869 -134.981 27.0383 -133.411C26.8897 -131.842 27.0518 -130.259 27.5154 -128.752C27.9789 -127.245 28.7348 -125.844 29.7399 -124.63L55.2399 -93.6299C56.2422 -92.4112 57.475 -91.4021 58.8678 -90.6604C60.2606 -89.9187 61.7861 -89.459 63.3568 -89.3076C64.9275 -89.1562 66.5126 -89.316 68.0215 -89.778C69.5303 -90.24 70.9332 -90.9951 72.1499 -91.9999L307.37 -285.74C309.537 -287.487 312.236 -288.439 315.02 -288.439C317.803 -288.439 320.503 -287.487 322.67 -285.74L557.9 -91.9999C559.114 -90.9949 560.515 -90.239 562.022 -89.7755C563.529 -89.3119 565.112 -89.1498 566.681 -89.2984C568.251 -89.447 569.776 -89.9034 571.169 -90.6414C572.562 -91.3795 573.796 -92.3848 574.8 -93.5999L600.3 -124.6C601.304 -125.821 602.057 -127.229 602.515 -128.743C602.973 -130.256 603.127 -131.845 602.969 -133.418C602.811 -134.992 602.344 -136.518 601.594 -137.91C600.844 -139.302 599.827 -140.532 598.6 -141.53Z" fill="#E0E0E0"/>
<path d="M58.5 72.25C67.9894 72.25 75.6818 64.527 75.6818 55V26.25C75.6818 16.723 67.9894 9 58.5 9C49.0106 9 41.3182 16.723 41.3182 26.25V55C41.3182 64.527 49.0106 72.25 58.5 72.25ZM87.1364 43.5H84.2727C82.6906 43.5 81.4091 44.7866 81.4091 46.375V55C81.4091 68.4406 69.8668 79.2255 56.2109 77.8886C44.3089 76.7224 35.5909 65.9807 35.5909 53.9758V46.375C35.5909 44.7866 34.3094 43.5 32.7273 43.5H29.8636C28.2815 43.5 27 44.7866 27 46.375V53.5913C27 69.6984 38.4492 84.0573 54.2045 86.2387V92.375H44.1818C42.5997 92.375 41.3182 93.6616 41.3182 95.25V98.125C41.3182 99.7134 42.5997 101 44.1818 101H72.8182C74.4003 101 75.6818 99.7134 75.6818 98.125V95.25C75.6818 93.6616 74.4003 92.375 72.8182 92.375H62.7955V86.307C78.1356 84.1938 90 70.9742 90 55V46.375C90 44.7866 88.7185 43.5 87.1364 43.5Z" fill="#E0E0E0"/>
</g>
<defs>
<clipPath id="clip0">
<rect width="69" height="110" fill="white" transform="translate(27 9)"/>
</clipPath>
</defs>
</svg>
