<svg width="54" height="42" viewBox="0 0 54 42" fill="none" xmlns="http://www.w3.org/2000/svg">
<path d="M25.7993 10.6677L8.83471 24.6071V39.6517C8.83471 40.0412 8.98982 40.4148 9.26591 40.6902C9.54201 40.9657 9.91647 41.1204 10.3069 41.1204L20.618 41.0938C21.0072 41.0918 21.3798 40.9362 21.6543 40.661C21.9288 40.3858 22.0829 40.0133 22.0829 39.625V30.8392C22.0829 30.4496 22.238 30.076 22.5141 29.8006C22.7902 29.5251 23.1646 29.3704 23.5551 29.3704H29.444C29.8344 29.3704 30.2089 29.5251 30.485 29.8006C30.7611 30.076 30.9162 30.4496 30.9162 30.8392V39.6186C30.9156 39.8119 30.9532 40.0034 31.0269 40.1821C31.1007 40.3608 31.209 40.5233 31.3458 40.6601C31.4825 40.797 31.645 40.9056 31.824 40.9797C32.0029 41.0538 32.1947 41.0919 32.3884 41.0919L42.6958 41.1204C43.0863 41.1204 43.4607 40.9657 43.7368 40.6902C44.0129 40.4148 44.168 40.0412 44.168 39.6517V24.597L27.2071 10.6677C27.0077 10.5074 26.7593 10.4199 26.5032 10.4199C26.2471 10.4199 25.9987 10.5074 25.7993 10.6677ZM52.5965 20.1421L44.9041 13.8163V1.10156C44.9041 0.80941 44.7878 0.529223 44.5807 0.32264C44.3737 0.116057 44.0928 0 43.8 0H38.6472C38.3544 0 38.0735 0.116057 37.8664 0.32264C37.6594 0.529223 37.543 0.80941 37.543 1.10156V7.76693L29.305 1.00518C28.5145 0.356153 27.5224 0.00129741 26.4986 0.00129741C25.4748 0.00129741 24.4828 0.356153 23.6922 1.00518L0.400719 20.1421C0.288911 20.2343 0.196407 20.3475 0.128494 20.4754C0.06058 20.6033 0.0185875 20.7432 0.00491552 20.8873C-0.00875646 21.0314 0.00616002 21.1767 0.0488126 21.3151C0.0914653 21.4534 0.161018 21.5819 0.253497 21.6934L2.59985 24.5391C2.69208 24.651 2.80552 24.7437 2.93368 24.8117C3.06183 24.8798 3.20219 24.922 3.34672 24.9359C3.49125 24.9498 3.6371 24.9351 3.77593 24.8927C3.91477 24.8503 4.04386 24.781 4.15581 24.6888L25.7993 6.90404C25.9987 6.7437 26.2471 6.65626 26.5032 6.65626C26.7593 6.65626 27.0077 6.7437 27.2071 6.90404L48.8515 24.6888C48.9633 24.781 49.0922 24.8504 49.2308 24.893C49.3695 24.9355 49.5152 24.9504 49.6596 24.9368C49.804 24.9231 49.9443 24.8812 50.0725 24.8135C50.2006 24.7457 50.3142 24.6534 50.4066 24.5419L52.7529 21.6962C52.8453 21.5841 52.9146 21.4548 52.9567 21.3159C52.9989 21.177 53.0131 21.0311 52.9986 20.8867C52.984 20.7423 52.941 20.6021 52.872 20.4743C52.803 20.3466 52.7094 20.2336 52.5965 20.1421Z" fill="#C4C4C4"/>
</svg>
