<svg width="53" height="44" viewBox="0 0 53 44" fill="none" xmlns="http://www.w3.org/2000/svg">
<path d="M15.9 21.75C21.0261 21.75 25.175 17.4935 25.175 12.2344C25.175 6.97529 21.0261 2.71875 15.9 2.71875C10.7739 2.71875 6.625 6.97529 6.625 12.2344C6.625 17.4935 10.7739 21.75 15.9 21.75ZM22.26 24.4688H21.5727C19.8502 25.3184 17.9372 25.8281 15.9 25.8281C13.8628 25.8281 11.9581 25.3184 10.2273 24.4688H9.54C4.27313 24.4688 0 28.8527 0 34.2563V36.7031C0 38.9546 1.78047 40.7812 3.975 40.7812H27.825C30.0195 40.7812 31.8 38.9546 31.8 36.7031V34.2563C31.8 28.8527 27.5269 24.4688 22.26 24.4688ZM39.75 21.75C44.1391 21.75 47.7 18.0967 47.7 13.5938C47.7 9.09082 44.1391 5.4375 39.75 5.4375C35.3609 5.4375 31.8 9.09082 31.8 13.5938C31.8 18.0967 35.3609 21.75 39.75 21.75ZM43.725 24.4688H43.4103C42.2592 24.8766 41.0419 25.1484 39.75 25.1484C38.4581 25.1484 37.2408 24.8766 36.0897 24.4688H35.775C34.0856 24.4688 32.5288 24.97 31.1623 25.7771C33.183 28.0116 34.45 30.9768 34.45 34.2563V37.5187C34.45 37.7057 34.4086 37.8841 34.4003 38.0625H49.025C51.2195 38.0625 53 36.2358 53 33.9844C53 28.7253 48.8511 24.4688 43.725 24.4688Z" fill="#C4C4C4"/>
</svg>
